<mxfile host="app.diagrams.net" agent="Mozilla/5.0 (X11; Linux x86_64) AppleWebKit/537.36 (KHTML, like Gecko) Chrome/133.0.0.0 Safari/537.36" version="26.0.16">
  <diagram name="1 oldal" id="LLAu9bjbG2GzJDZKNhX8">
    <mxGraphModel dx="1034" dy="457" grid="1" gridSize="10" guides="1" tooltips="1" connect="1" arrows="1" fold="1" page="1" pageScale="1" pageWidth="827" pageHeight="1169" math="0" shadow="0">
      <root>
        <mxCell id="0" />
        <mxCell id="1" parent="0" />
        <mxCell id="81zufjYBg58Ni_qmDFQW-52" value="" style="ellipse;whiteSpace=wrap;html=1;" vertex="1" parent="1">
          <mxGeometry x="830" y="310" width="120" height="80" as="geometry" />
        </mxCell>
        <mxCell id="81zufjYBg58Ni_qmDFQW-1" value="A" style="rounded=0;whiteSpace=wrap;html=1;" vertex="1" parent="1">
          <mxGeometry x="170" y="210" width="120" height="50" as="geometry" />
        </mxCell>
        <mxCell id="81zufjYBg58Ni_qmDFQW-3" value="&lt;u&gt;B_ID&lt;/u&gt;" style="ellipse;whiteSpace=wrap;html=1;" vertex="1" parent="1">
          <mxGeometry x="70" y="320" width="100" height="60" as="geometry" />
        </mxCell>
        <mxCell id="81zufjYBg58Ni_qmDFQW-5" value="C" style="ellipse;whiteSpace=wrap;html=1;" vertex="1" parent="1">
          <mxGeometry x="180" y="320" width="100" height="60" as="geometry" />
        </mxCell>
        <mxCell id="81zufjYBg58Ni_qmDFQW-7" value="D" style="ellipse;whiteSpace=wrap;html=1;" vertex="1" parent="1">
          <mxGeometry x="290" y="320" width="100" height="60" as="geometry" />
        </mxCell>
        <mxCell id="81zufjYBg58Ni_qmDFQW-9" value="D1" style="ellipse;whiteSpace=wrap;html=1;" vertex="1" parent="1">
          <mxGeometry x="220" y="450" width="70" height="40" as="geometry" />
        </mxCell>
        <mxCell id="81zufjYBg58Ni_qmDFQW-10" value="D2" style="ellipse;whiteSpace=wrap;html=1;" vertex="1" parent="1">
          <mxGeometry x="305" y="450" width="70" height="40" as="geometry" />
        </mxCell>
        <mxCell id="81zufjYBg58Ni_qmDFQW-11" value="D3" style="ellipse;whiteSpace=wrap;html=1;" vertex="1" parent="1">
          <mxGeometry x="390" y="450" width="70" height="40" as="geometry" />
        </mxCell>
        <mxCell id="81zufjYBg58Ni_qmDFQW-29" style="edgeStyle=orthogonalEdgeStyle;rounded=0;orthogonalLoop=1;jettySize=auto;html=1;entryX=0.5;entryY=0;entryDx=0;entryDy=0;strokeColor=none;" edge="1" parent="1" source="81zufjYBg58Ni_qmDFQW-18" target="81zufjYBg58Ni_qmDFQW-28">
          <mxGeometry relative="1" as="geometry" />
        </mxCell>
        <mxCell id="81zufjYBg58Ni_qmDFQW-18" value="E" style="rounded=0;whiteSpace=wrap;html=1;" vertex="1" parent="1">
          <mxGeometry x="600" y="210" width="120" height="50" as="geometry" />
        </mxCell>
        <mxCell id="81zufjYBg58Ni_qmDFQW-19" value="&lt;u&gt;F_ID&lt;/u&gt;" style="ellipse;whiteSpace=wrap;html=1;" vertex="1" parent="1">
          <mxGeometry x="500" y="320" width="100" height="60" as="geometry" />
        </mxCell>
        <mxCell id="81zufjYBg58Ni_qmDFQW-20" value="G" style="ellipse;whiteSpace=wrap;html=1;" vertex="1" parent="1">
          <mxGeometry x="610" y="320" width="100" height="60" as="geometry" />
        </mxCell>
        <mxCell id="81zufjYBg58Ni_qmDFQW-24" value="H" style="ellipse;whiteSpace=wrap;html=1;" vertex="1" parent="1">
          <mxGeometry x="720" y="320" width="100" height="60" as="geometry" />
        </mxCell>
        <mxCell id="81zufjYBg58Ni_qmDFQW-28" value="I" style="ellipse;whiteSpace=wrap;html=1;" vertex="1" parent="1">
          <mxGeometry x="840" y="320" width="100" height="60" as="geometry" />
        </mxCell>
        <mxCell id="81zufjYBg58Ni_qmDFQW-39" style="edgeStyle=orthogonalEdgeStyle;rounded=0;orthogonalLoop=1;jettySize=auto;html=1;entryX=0;entryY=0.5;entryDx=0;entryDy=0;" edge="1" parent="1" source="81zufjYBg58Ni_qmDFQW-37" target="81zufjYBg58Ni_qmDFQW-18">
          <mxGeometry relative="1" as="geometry" />
        </mxCell>
        <mxCell id="81zufjYBg58Ni_qmDFQW-41" style="edgeStyle=orthogonalEdgeStyle;rounded=0;orthogonalLoop=1;jettySize=auto;html=1;" edge="1" parent="1" source="81zufjYBg58Ni_qmDFQW-37">
          <mxGeometry relative="1" as="geometry">
            <mxPoint x="590" y="235" as="targetPoint" />
          </mxGeometry>
        </mxCell>
        <mxCell id="81zufjYBg58Ni_qmDFQW-37" value="A - E" style="rhombus;whiteSpace=wrap;html=1;" vertex="1" parent="1">
          <mxGeometry x="400" y="195" width="80" height="80" as="geometry" />
        </mxCell>
        <mxCell id="81zufjYBg58Ni_qmDFQW-38" style="edgeStyle=orthogonalEdgeStyle;rounded=0;orthogonalLoop=1;jettySize=auto;html=1;entryX=1;entryY=0.5;entryDx=0;entryDy=0;" edge="1" parent="1" source="81zufjYBg58Ni_qmDFQW-37" target="81zufjYBg58Ni_qmDFQW-1">
          <mxGeometry relative="1" as="geometry" />
        </mxCell>
        <mxCell id="81zufjYBg58Ni_qmDFQW-42" value="" style="endArrow=none;html=1;rounded=0;exitX=0.5;exitY=0;exitDx=0;exitDy=0;entryX=0.5;entryY=1;entryDx=0;entryDy=0;" edge="1" parent="1" source="81zufjYBg58Ni_qmDFQW-3" target="81zufjYBg58Ni_qmDFQW-1">
          <mxGeometry width="50" height="50" relative="1" as="geometry">
            <mxPoint x="220" y="310" as="sourcePoint" />
            <mxPoint x="270" y="260" as="targetPoint" />
          </mxGeometry>
        </mxCell>
        <mxCell id="81zufjYBg58Ni_qmDFQW-44" value="" style="endArrow=none;html=1;rounded=0;exitX=0.5;exitY=0;exitDx=0;exitDy=0;entryX=0.5;entryY=1;entryDx=0;entryDy=0;" edge="1" parent="1" source="81zufjYBg58Ni_qmDFQW-5" target="81zufjYBg58Ni_qmDFQW-1">
          <mxGeometry width="50" height="50" relative="1" as="geometry">
            <mxPoint x="460" y="350" as="sourcePoint" />
            <mxPoint x="510" y="300" as="targetPoint" />
          </mxGeometry>
        </mxCell>
        <mxCell id="81zufjYBg58Ni_qmDFQW-45" value="" style="endArrow=none;html=1;rounded=0;entryX=0.5;entryY=1;entryDx=0;entryDy=0;exitX=0.5;exitY=0;exitDx=0;exitDy=0;" edge="1" parent="1" source="81zufjYBg58Ni_qmDFQW-7" target="81zufjYBg58Ni_qmDFQW-1">
          <mxGeometry width="50" height="50" relative="1" as="geometry">
            <mxPoint x="290" y="320" as="sourcePoint" />
            <mxPoint x="340" y="270" as="targetPoint" />
          </mxGeometry>
        </mxCell>
        <mxCell id="81zufjYBg58Ni_qmDFQW-49" value="" style="endArrow=none;html=1;rounded=0;entryX=0.5;entryY=1;entryDx=0;entryDy=0;" edge="1" parent="1" target="81zufjYBg58Ni_qmDFQW-7">
          <mxGeometry width="50" height="50" relative="1" as="geometry">
            <mxPoint x="250" y="450" as="sourcePoint" />
            <mxPoint x="300" y="400" as="targetPoint" />
          </mxGeometry>
        </mxCell>
        <mxCell id="81zufjYBg58Ni_qmDFQW-50" value="" style="endArrow=none;html=1;rounded=0;entryX=0.5;entryY=1;entryDx=0;entryDy=0;exitX=0.5;exitY=0;exitDx=0;exitDy=0;" edge="1" parent="1" source="81zufjYBg58Ni_qmDFQW-10" target="81zufjYBg58Ni_qmDFQW-7">
          <mxGeometry width="50" height="50" relative="1" as="geometry">
            <mxPoint x="390" y="420" as="sourcePoint" />
            <mxPoint x="440" y="370" as="targetPoint" />
          </mxGeometry>
        </mxCell>
        <mxCell id="81zufjYBg58Ni_qmDFQW-51" value="" style="endArrow=none;html=1;rounded=0;entryX=0.5;entryY=1;entryDx=0;entryDy=0;exitX=0.5;exitY=0;exitDx=0;exitDy=0;" edge="1" parent="1" source="81zufjYBg58Ni_qmDFQW-11" target="81zufjYBg58Ni_qmDFQW-7">
          <mxGeometry width="50" height="50" relative="1" as="geometry">
            <mxPoint x="390" y="450" as="sourcePoint" />
            <mxPoint x="340" y="390" as="targetPoint" />
          </mxGeometry>
        </mxCell>
        <mxCell id="81zufjYBg58Ni_qmDFQW-57" value="" style="endArrow=none;html=1;rounded=0;entryX=0.5;entryY=1;entryDx=0;entryDy=0;" edge="1" parent="1" target="81zufjYBg58Ni_qmDFQW-18">
          <mxGeometry width="50" height="50" relative="1" as="geometry">
            <mxPoint x="550" y="320" as="sourcePoint" />
            <mxPoint x="600" y="270" as="targetPoint" />
          </mxGeometry>
        </mxCell>
        <mxCell id="81zufjYBg58Ni_qmDFQW-58" value="" style="endArrow=none;html=1;rounded=0;exitX=0.5;exitY=0;exitDx=0;exitDy=0;" edge="1" parent="1" source="81zufjYBg58Ni_qmDFQW-20">
          <mxGeometry width="50" height="50" relative="1" as="geometry">
            <mxPoint x="630" y="570" as="sourcePoint" />
            <mxPoint x="660" y="260" as="targetPoint" />
          </mxGeometry>
        </mxCell>
        <mxCell id="81zufjYBg58Ni_qmDFQW-59" value="" style="endArrow=none;html=1;rounded=0;exitX=0.5;exitY=1;exitDx=0;exitDy=0;entryX=0.5;entryY=0;entryDx=0;entryDy=0;" edge="1" parent="1" source="81zufjYBg58Ni_qmDFQW-18" target="81zufjYBg58Ni_qmDFQW-24">
          <mxGeometry width="50" height="50" relative="1" as="geometry">
            <mxPoint x="710" y="300" as="sourcePoint" />
            <mxPoint x="760" y="250" as="targetPoint" />
          </mxGeometry>
        </mxCell>
        <mxCell id="81zufjYBg58Ni_qmDFQW-61" value="" style="endArrow=none;html=1;rounded=0;entryX=0.5;entryY=1;entryDx=0;entryDy=0;" edge="1" parent="1" target="81zufjYBg58Ni_qmDFQW-18">
          <mxGeometry width="50" height="50" relative="1" as="geometry">
            <mxPoint x="890" y="310" as="sourcePoint" />
            <mxPoint x="690" y="380" as="targetPoint" />
          </mxGeometry>
        </mxCell>
      </root>
    </mxGraphModel>
  </diagram>
</mxfile>
